<?xml version="1.0" encoding="utf-8" ?><svg xmlns="http://www.w3.org/2000/svg" xmlns:xlink="http://www.w3.org/1999/xlink" width="2064" height="512" viewBox="0 0 2064 512"><path fill="#23272A" d="M0 0L2064 0L2064 512L0 512L0 0Z"/><defs><linearGradient id="gradient_0" gradientUnits="userSpaceOnUse" x1="297.59891" y1="406.97607" x2="455.60861" y2="85.533127"><stop offset="0" stop-color="#2A84D6"/><stop offset="1" stop-color="#43C2DE"/></linearGradient></defs><path fill="url(#gradient_0)" d="M207.964 126.211C211.545 125.654 218.751 125.601 222.482 125.588L438.61 125.596L505.274 125.573C517.049 125.572 529.695 125.188 541.142 126.109C551.03 126.905 555.014 136.336 555.223 144.852C555.801 168.411 555.552 193.035 555.56 216.498L555.696 363.564L532.75 363.533L196.258 363.546L196.254 205.148C196.241 184.816 195.456 158.417 197.285 138.015C197.732 133.033 203.865 128.721 207.964 126.211Z"/><path fill="#23272A" d="M212.554 142.081L539.43 141.972L539.512 348.799L212.406 348.598L212.554 142.081Z"/><defs><linearGradient id="gradient_1" gradientUnits="userSpaceOnUse" x1="289.9649" y1="305.87091" x2="324.86176" y2="181.1586"><stop offset="0" stop-color="#2E85D4"/><stop offset="1" stop-color="#3BAED9"/></linearGradient></defs><path fill="url(#gradient_1)" d="M293.215 182.402C300.793 171.38 309.964 170.754 318.105 181.451L311.328 182.936C311.995 187.761 311.881 189.061 308.771 193.179C308.549 193.473 308.323 193.763 308.092 194.05L307.88 194.169C305.281 195.59 302.682 195.794 299.954 194.483L299.858 194.505C302.409 196.678 305.646 198.293 307.502 200.541L307.134 200.513C303.454 200.212 294.151 195.794 295.035 195.767C261.798 196.77 243.759 250.664 263.497 274.439C268.952 277.157 276.962 276.556 278.731 283.217C280.608 290.284 280.371 292.028 287.473 295.289C313.513 307.243 337.844 293.358 355.173 275.165C360.163 276.176 368.101 275.896 370.379 276.96C341.2 306.171 313.412 325.798 272.664 301.017C265.358 302.397 263.994 302.453 257.569 298.823C253.638 293.418 253.257 292.154 254.108 285.533C254.107 282.16 246.027 268.526 244.866 262.604C237.426 224.656 255.924 192.636 293.215 182.402Z"/><path fill="#23272A" d="M260.996 290.131C260.332 287.508 261.531 284.768 263.909 283.476C266.287 282.184 269.238 282.668 271.078 284.652C272.918 286.637 273.179 289.616 271.711 291.889C270.243 294.163 267.421 295.152 264.855 294.292C262.945 293.652 261.491 292.084 260.996 290.131Z"/><path fill="#23272A" d="M308.092 194.05C303.219 192.368 301.362 192.007 300.381 186.447C301.459 182.931 300.68 184.117 303.739 181.76C307.03 180.853 308.252 181.614 311.328 182.936C311.995 187.761 311.881 189.061 308.771 193.179C308.549 193.473 308.323 193.763 308.092 194.05Z"/><path fill="#2E8DD8" d="M254.108 285.533C259.665 287.145 258.554 285.938 260.996 290.131C261.491 292.084 262.945 293.652 264.855 294.292C262.646 296.732 260.535 297.458 257.569 298.823C253.638 293.418 253.257 292.154 254.108 285.533Z"/><defs><linearGradient id="gradient_2" gradientUnits="userSpaceOnUse" x1="306.9306" y1="285.11658" x2="329.75473" y2="213.42387"><stop offset="0" stop-color="#3188D4"/><stop offset="1" stop-color="#38A9DA"/></linearGradient></defs><path fill="url(#gradient_2)" d="M382.859 228.273C366.911 243.604 353.675 262.204 335.917 275.95C318.122 289.725 295.779 291.434 279.216 274.549C271.692 266.843 267.609 256.418 267.9 245.652C268.076 234.44 272.729 223.764 280.821 216.002C288.101 209.057 297.879 205.348 307.934 205.718C326.043 206.282 337.252 219.224 348.637 231.246L340.169 240.316C337.319 236.976 334.332 233.754 331.216 230.66C319.932 219.376 302.425 211.002 289.231 224.509C283.427 230.483 280.241 238.523 280.377 246.851C280.677 261.038 291.429 275.964 307.033 274.739C329.041 273.011 344.344 251.1 358.738 236.618C362.217 233.117 365.7 229.11 369.06 225.476C374.779 225.876 377.446 226.239 382.859 228.273Z"/><defs><linearGradient id="gradient_3" gradientUnits="userSpaceOnUse" x1="436.93674" y1="282.90625" x2="443.65659" y2="206.70515"><stop offset="0" stop-color="#3194D7"/><stop offset="1" stop-color="#40BADF"/></linearGradient></defs><path fill="url(#gradient_3)" d="M396.749 231.503C409.767 218.409 423.333 205.423 443.043 205.347C466.744 205.256 483.846 223.823 483.717 247.023C483.607 258.116 479.073 268.705 471.123 276.442C463.994 283.396 454.335 287.138 444.382 286.803C425.555 286.342 413.299 273.148 401.079 260.688L409.246 251.847C419.403 262.229 429.997 274.295 445.734 274.624C461 274.942 471.198 260.961 471.263 246.583C471.346 238.356 468.162 230.432 462.409 224.549C445.042 207.134 421.622 223.442 408.081 236.984C404.535 232.453 402.156 232.467 396.749 231.503Z"/><path fill="#369ED9" d="M496.202 240.086C499.895 232.472 493.486 226.258 494.936 219.091C506.484 219.075 499.564 230.094 507.258 236.287C511.004 248.224 507.068 266.143 501.219 277.341C493.203 292.777 479.309 304.335 462.672 309.408C461.445 309.791 460.21 310.149 458.968 310.482C456.581 313.51 454.959 315.865 451.787 318.084C442.879 319.516 440.17 318.048 434.327 311.3C411.739 305.937 400.634 294.669 384.864 278.586L392.746 269.829C400.904 278.971 419.411 296.77 432.275 297.692C436.141 297.969 437.12 296.22 439.889 293.843C448.497 291.179 451.072 292.899 457.647 298.608C487.115 287.353 496.147 270.428 496.202 240.086Z"/><path fill="#2E8DD8" d="M384.864 278.586L392.746 269.829C400.904 278.971 419.411 296.77 432.275 297.692C436.141 297.969 437.12 296.22 439.889 293.843C443.238 295.074 452.903 298.924 454.212 302.102C450.483 309.609 453.117 307.381 446.104 313.26L439.938 313.413L439.714 312.663L438.668 313.197C441.144 313.064 449.948 316.557 451.787 318.084C442.879 319.516 440.17 318.048 434.327 311.3C411.739 305.937 400.634 294.669 384.864 278.586Z"/><path fill="#3DB3DD" d="M391.902 202.212C419.032 178.462 446.628 173.297 478.88 190.586C482.093 190.159 489.931 189.289 491.663 191.521C495.81 196.864 506.378 228.9 507.064 234.065C507.169 234.802 507.234 235.543 507.258 236.287C499.564 230.094 506.484 219.075 494.936 219.091C493.486 226.258 499.895 232.472 496.202 240.086C492.91 225.728 493.755 218.446 480.349 215.838C474.577 214.715 472.075 206.686 470.374 201.149C451.384 185.698 423.23 193.494 405.224 206.595C401.392 204.928 396.001 203.46 391.902 202.212Z"/><path fill="#23272A" d="M481.94 197.517C483.916 196.661 486.202 196.957 487.895 198.288C489.587 199.619 490.414 201.771 490.048 203.893C489.682 206.015 488.182 207.765 486.141 208.452C483.164 209.455 479.925 207.932 478.798 204.999C477.671 202.066 479.057 198.766 481.94 197.517Z"/><path fill="#3DB3DD" d="M318.105 181.451C341.124 187.294 348.893 195.955 364.922 213.356L356.736 222.127C343.519 207.987 337.151 199.511 317.831 193.844C314.541 197.066 312.125 199.334 307.502 200.541C305.646 198.293 302.409 196.678 299.858 194.505L299.954 194.483C302.682 195.794 305.281 195.59 307.88 194.169L308.092 194.05C308.323 193.763 308.549 193.473 308.771 193.179C311.881 189.061 311.995 187.761 311.328 182.936L318.105 181.451Z"/><path fill="#369ED9" d="M385.204 243.582C390.595 244.627 392.95 245.333 398.121 247.224L370.379 276.96C368.101 275.896 360.163 276.176 355.173 275.165C365.088 265.622 375.823 253.698 385.204 243.582Z"/><path fill="#3DB3DD" d="M369.06 225.476C375.873 217.853 384.591 209.532 391.902 202.212C396.001 203.46 401.392 204.928 405.224 206.595C396.953 213.665 390.408 220.499 382.859 228.273C377.446 226.239 374.779 225.876 369.06 225.476Z"/><path fill="#3DB3DD" d="M385.204 243.582L396.749 231.503C402.156 232.467 404.535 232.453 408.081 236.984L398.121 247.224C392.95 245.333 390.595 244.627 385.204 243.582Z"/><defs><linearGradient id="gradient_4" gradientUnits="userSpaceOnUse" x1="1699.5088" y1="350.50027" x2="1736.4283" y2="151.94795"><stop offset="0" stop-color="#2D85D5"/><stop offset="1" stop-color="#40BFDF"/></linearGradient></defs><path fill="url(#gradient_4)" d="M1791.97 164.386C1813.33 161.447 1835.86 168.826 1854.22 179.249C1873.53 173.639 1885.72 186.636 1881.98 206.043C1888.25 215.363 1893.07 225.577 1896.29 236.339C1903.63 261.154 1900.7 287.876 1888.17 310.515C1873.44 337.362 1852.15 351.727 1823.35 360.089C1812.99 376.447 1796.4 378.321 1785.98 360.884C1750.66 352.04 1735.57 336.868 1710.22 311.63L1722.92 298.423C1745 320.923 1756.54 333.442 1787.14 343.081C1788.29 341.801 1789.48 340.551 1790.7 339.333C1801.01 329.131 1811.9 332.724 1821.01 342.066C1829.25 339.694 1837.12 336.189 1844.39 331.65C1862.71 320.036 1875.62 301.575 1880.24 280.384C1885.06 258.476 1880.19 236.746 1868.24 218.015C1867.58 218.038 1866.92 218.055 1866.26 218.067C1849.5 218.356 1842.99 209.358 1842.86 193.553C1792.31 165.975 1753.08 189.4 1716.95 226.319C1694.19 248.836 1674.15 273.813 1651 295.731C1633.9 311.912 1615.1 325.438 1590.56 324.584C1574.31 323.926 1558.96 316.931 1547.81 305.097C1536.79 293.168 1530.99 277.333 1531.7 261.109C1532.32 244.403 1539.63 228.647 1551.98 217.378C1563.53 206.709 1578.91 201.164 1594.62 202.003C1621.63 203.279 1637.97 222.257 1654.8 240.673L1642.46 254.078C1627.82 237.992 1612.18 217.952 1587.91 220.271C1576.86 221.322 1566.7 226.783 1559.73 235.418C1552.29 244.596 1548.78 256.344 1549.98 268.099C1553.05 296.263 1586.44 316.312 1610.15 302.911C1678.36 264.365 1706.48 174.198 1791.97 164.386Z"/><path fill="#23272A" d="M1859.93 189.536C1864.6 187.942 1869.69 190.455 1871.26 195.139C1872.83 199.822 1870.3 204.892 1865.61 206.444C1860.94 207.987 1855.91 205.471 1854.35 200.817C1852.79 196.162 1855.28 191.12 1859.93 189.536Z"/><path fill="#23272A" d="M1800.29 345.497C1804.6 343.273 1809.89 344.939 1812.14 349.227C1814.4 353.515 1812.77 358.819 1808.5 361.106C1804.18 363.416 1798.81 361.769 1796.53 357.436C1794.25 353.103 1795.94 347.744 1800.29 345.497Z"/><defs><linearGradient id="gradient_5" gradientUnits="userSpaceOnUse" x1="1681.7603" y1="365.58075" x2="1694.7378" y2="194.48495"><stop offset="0" stop-color="#2C7ED4"/><stop offset="1" stop-color="#3DB7DD"/></linearGradient></defs><path fill="url(#gradient_5)" d="M1572.03 167.241C1584.34 148.147 1598.56 150.326 1611.01 167.59L1599.18 169.909C1600.44 172.24 1600.6 175.014 1599.61 177.472C1598.61 179.929 1596.57 181.814 1594.04 182.609L1595.92 184.347L1597.67 183.788C1599.79 185.298 1602.96 187.416 1604.83 189.083C1592.29 197.739 1584.03 195.153 1573.65 185.064C1533.27 196.172 1512.55 227.393 1512.09 268.539C1514.83 286.483 1516.75 292.063 1525.36 308.017C1543.28 307.475 1550.25 314.223 1551.44 331.865C1565.56 339.572 1577.69 343.945 1594.07 343.931C1607.09 343.846 1619.88 340.546 1631.32 334.325C1663.51 316.819 1704.61 264.019 1732.49 237.296C1752.78 217.844 1770.77 201.451 1800.81 201.451C1817.13 201.312 1832.82 207.727 1844.37 219.259C1856.13 231.136 1862.74 247.159 1862.79 263.871C1862.77 280.014 1855.83 295.754 1844.41 307.085C1833.09 318.475 1817.65 324.802 1801.59 324.626C1773.17 324.44 1754.35 303.579 1735.82 284.813L1748.36 271.769C1769.1 294.187 1797.32 321.925 1828.49 297.083C1837.39 289.966 1843.08 279.596 1844.3 268.271C1845.58 256.449 1842.11 244.605 1834.64 235.347C1827.29 226.27 1817.01 220.846 1805.39 219.736C1772.4 216.585 1748.05 246.691 1727.63 268.055C1705.45 291.258 1685.4 314.995 1660.9 335.706C1632.59 359.63 1599.96 368.332 1564.08 357.365C1558.7 356.81 1541.99 346.813 1538.71 346.69C1523.88 346.137 1516.99 351.744 1511.79 332.887C1510.43 327.939 1510.91 325.601 1511.67 319.988C1500.71 302.582 1494.79 286.267 1494.17 265.634C1492.3 231.745 1512.87 195.808 1541.97 178.784C1549.85 173.221 1562.63 169.181 1572.03 167.241Z"/><path fill="#369ED9" d="M1572.03 167.241C1584.34 148.147 1598.56 150.326 1611.01 167.59L1599.18 169.909C1600.44 172.24 1600.6 175.014 1599.61 177.472C1598.61 179.929 1596.57 181.814 1594.04 182.609L1595.92 184.347L1597.67 183.788C1599.79 185.298 1602.96 187.416 1604.83 189.083C1592.29 197.739 1584.03 195.153 1573.65 185.064C1533.27 196.172 1512.55 227.393 1512.09 268.539C1510.34 282.058 1514.15 308.379 1530.7 311.16C1536.68 312.166 1542.21 311.984 1543.67 318.878L1542.49 320.495C1538.11 320.097 1538.14 317.494 1535.07 316.217C1525.61 312.28 1524.13 323.734 1514.98 326.381C1513.19 324.521 1514.91 320.863 1513.38 317.027C1510.17 309.006 1504.51 302.666 1501.77 294.385C1498.81 285.475 1499.91 273.382 1494.43 265.976L1494.17 265.634C1492.3 231.745 1512.87 195.808 1541.97 178.784C1549.85 173.221 1562.63 169.181 1572.03 167.241Z"/><path fill="#3DB3DD" d="M1572.03 167.241C1584.34 148.147 1598.56 150.326 1611.01 167.59L1599.18 169.909C1600.44 172.24 1600.6 175.014 1599.61 177.472C1598.61 179.929 1596.57 181.814 1594.04 182.609L1595.92 184.347C1580.61 189.908 1582.16 175.777 1578.2 171.525C1571.61 164.447 1550.68 179.871 1541.97 178.784C1549.85 173.221 1562.63 169.181 1572.03 167.241Z"/><path fill="#23272A" d="M1594.04 182.609C1589.57 184.015 1584.78 181.709 1583.09 177.341C1581.41 172.974 1583.4 168.046 1587.65 166.082C1591.9 164.118 1596.95 165.793 1599.18 169.909C1600.44 172.24 1600.6 175.014 1599.61 177.472C1598.61 179.929 1596.57 181.814 1594.04 182.609Z"/><path fill="#23272A" d="M1528.42 319.492C1533.09 318.107 1538.02 320.721 1539.5 325.372C1540.98 330.022 1538.46 334.999 1533.84 336.567C1530.77 337.609 1527.37 336.91 1524.96 334.74C1522.55 332.57 1521.51 329.267 1522.22 326.105C1522.94 322.942 1525.31 320.413 1528.42 319.492Z"/><path fill="#2E8DD8" d="M162.163 373.668L310.688 373.694C312.896 373.705 326.837 373.621 327.862 374.485C331.003 377.135 333.797 382.973 338.806 383.313C347.991 383.938 364.171 383.499 372.736 383.502C386.555 383.508 396.617 383.23 410.063 383.92C417.925 384.333 422.668 374.455 424.693 374.401C479.849 372.921 535.226 373.871 590.435 373.602C588.728 379.466 587.749 382.253 585.272 387.877C571.2 406.906 549.933 402.006 528.424 402.004L448.521 401.994L279.28 401.953C250.487 401.945 221.686 402.138 192.898 401.76C174.262 401.515 166.117 390.536 162.163 373.668Z"/><path fill="#FDFDFD" d="M1172.36 173.862C1191.48 173.737 1222.67 170.5 1237.66 183.808C1257.57 201.482 1255.79 236.013 1239.54 255.472C1221.52 271.347 1196.09 267.495 1172.46 267.224C1172.11 236.301 1172.39 204.83 1172.36 173.862Z"/><path fill="#23272A" d="M1190.62 189.021C1200.24 188.886 1215.29 187.746 1222.91 193.712C1237.51 205.129 1235.75 231.014 1225.75 244.661C1215.12 253.729 1204.05 252.151 1190.75 252.023L1190.62 189.021Z"/><path fill="#FDFDFD" d="M661.76 173.913C677.154 173.969 696.236 172.362 711.165 174.94C733.544 178.803 739.78 204.852 719.179 217.687C734.841 226.076 737.047 235.999 732.637 252.45C719.902 273.084 683.949 267.451 661.718 267.274L661.76 173.913Z"/><path fill="#23272A" d="M679.578 225.987C693.52 225.821 728.91 223.356 713.526 248.925C705.298 254.605 689.751 253.039 679.564 252.843L679.578 225.987Z"/><path fill="#23272A" d="M679.385 188.188C691.496 187.955 728.247 186.648 709.896 209.357C700.906 213.226 689.561 212.045 679.507 211.933L679.385 188.188Z"/><path fill="#FDFDFD" d="M968.847 173.863L986.705 173.857C992.796 197.247 998.604 220.709 1004.13 244.239C1006.97 225.921 1015.78 192.743 1020.34 173.874L1039.27 173.872L1034.2 192.225C1027.2 214.544 1020.1 244.139 1014.02 267.216L995.828 267.173L977.217 198.018C973.201 218.344 965.115 246.624 959.75 267.3L941.664 267.22L916.129 173.898L935.271 173.891C941.189 196.266 946.578 220.897 951.986 243.555C956.103 222.277 963.588 195.583 968.847 173.863Z"/><path fill="#FDFDFD" d="M1338.86 173.876C1362.05 173.959 1408.07 166.656 1409.77 201.424C1410.84 223.329 1397.58 234.077 1376.73 235.422L1357.06 235.415L1357.06 267.272L1338.9 267.275L1338.86 173.876Z"/><path fill="#23272A" d="M1357.04 188.748C1366.98 188.562 1377.96 187.376 1386.78 193.064C1395.29 198.555 1392.25 209.698 1387.23 216.686C1378.49 221.795 1367.12 220.627 1357.02 220.493L1357.04 188.748Z"/><path fill="#FDFDFD" d="M1088.26 173.858L1109.79 173.91L1144.82 267.248L1125.3 267.243C1123.45 261.448 1120.9 252.205 1117.72 247.092C1116.8 245.618 1115.36 245.891 1113.25 245.622L1080.15 245.706L1073.25 267.311L1054.02 267.25C1065.67 236.208 1077.09 205.076 1088.26 173.858Z"/><path fill="#23272A" d="M1098.38 191.572C1100.78 193.175 1110.73 224.829 1112.89 231.017L1100.5 231.004L1085.07 231.003C1089.88 218.277 1094.13 204.572 1098.38 191.572Z"/><path fill="#FDFDFD" d="M847.771 172.255C870.293 170.831 884.081 175.677 889.965 198.769L872.965 200.415C868.93 189.005 862.669 185.537 850.744 186.886C833.865 188.797 832.988 205.908 850.175 210.216C868.835 214.894 895.976 218.804 890.903 244.571C887.308 262.831 875.313 267.698 858.027 269.248C833.327 269.2 823.149 262.53 815.665 239.64L834.4 238.213C838.078 250.956 851.22 257.594 861.325 253.942C885.912 245.055 867.584 227.506 849.573 226.649C839.936 226.191 820.426 216.3 819.528 206.128C817.69 185.32 828.675 175.973 847.771 172.255Z"/><path fill="#FDFDFD" d="M660.47 305.011C671.655 304.823 705.714 301.716 700.739 320.882C699.612 325.225 697.045 325.725 694.537 329.27C696.346 337.377 706.955 332.848 700.575 351.748C690.878 361.087 674.063 358.672 660.461 358.476L660.47 305.011Z"/><path fill="#23272A" d="M670.472 334.656C678.462 334.618 688.608 332.556 692.252 340.842C692.219 344.806 691.908 345.527 690.018 349.013C682.947 350.699 677.696 350.353 670.484 350.277L670.472 334.656Z"/><path fill="#23272A" d="M670.339 312.904C677.544 312.724 686.235 311.106 690.323 317.855C690.611 321.526 690.075 322.412 688.486 325.664C682.621 327.335 676.476 326.939 670.372 326.875L670.339 312.904Z"/><path fill="#FDFDFD" d="M1284.77 173.923L1303.04 173.876L1303.02 267.224L1284.8 267.229L1284.77 173.923Z"/><path fill="#FDFDFD" d="M766.786 173.895L784.842 173.892L784.906 267.256L766.793 267.237L766.786 173.895Z"/><path fill="#FDFDFD" d="M1208.71 304.993C1220.79 305.013 1244.11 301.556 1248.46 315.939C1251.53 326.084 1247.62 331.713 1239.89 337.338C1243.61 344.326 1247.56 351.366 1251.36 358.324L1240 358.583C1237.3 352.956 1230.37 335.175 1221.96 338.802C1217.29 344.487 1218.69 351.027 1218.95 358.564L1208.63 358.48C1208.88 340.823 1208.69 322.691 1208.71 304.993Z"/><path fill="#23272A" d="M1218.96 313.027C1230.71 312.861 1243.86 311.966 1237.1 328.553C1231.58 331.477 1225.12 330.878 1218.92 330.827L1218.96 313.027Z"/><path fill="#3DB3DD" d="M1611.01 167.59C1636.57 166.798 1664.44 196.778 1680.13 213.762L1667.9 226.892C1659.8 218.313 1616.94 171.753 1604.83 189.083C1602.96 187.416 1599.79 185.298 1597.67 183.788L1595.92 184.347L1594.04 182.609C1596.57 181.814 1598.61 179.929 1599.61 177.472C1600.6 175.014 1600.44 172.24 1599.18 169.909L1611.01 167.59Z"/><path fill="#FDFDFD" d="M802.422 304.978L814.375 304.983L834.507 358.543L823.594 358.53C822.244 354.547 820.536 347.025 816.79 345.493L797.676 345.473L793.032 358.44L782.331 358.436L802.422 304.978Z"/><path fill="#23272A" d="M808.058 314.014C809.817 319.008 813.455 328.617 814.369 333.368C815.521 335.458 815.497 334.679 814.979 336.694C810.56 338.575 804.627 339.75 801.242 335.54L802.335 331.883C804.168 326.242 806.49 319.641 808.058 314.014Z"/><path fill="#FDFDFD" d="M1160.64 304.958L1172.78 304.928C1178.33 321.678 1185.9 340.491 1192.12 357.284L1191.09 358.564C1173.65 359.727 1184.3 346.762 1173.25 345.466L1156.09 345.36L1151.74 358.536L1140.75 358.579L1160.64 304.958Z"/><path fill="#23272A" d="M1166.25 314.66C1168.55 318.469 1174.28 333.229 1172.66 337.345L1169.25 337.648C1156.28 338.414 1159.17 333.786 1162.93 324.299C1164.08 321.378 1165.22 317.698 1166.25 314.66Z"/><path fill="#FDFDFD" d="M967.74 304.986L979.891 304.965C984.81 320.634 993.804 342.509 999.762 358.47L988.778 358.482C987.504 354.475 986.018 346.46 982.012 345.434L963.069 345.418C961.462 351.193 961.317 355.035 956.539 358.08C953.591 358.381 951.988 358.732 949.147 357.698C948.935 352.586 964.774 313.041 967.74 304.986Z"/><path fill="#23272A" d="M973.406 314.738C975.782 318.044 981.164 333.008 979.847 337.184L977.093 337.466C974.097 337.623 970.85 338.154 968.291 336.765C965.599 331.12 970.787 322.565 973.406 314.738Z"/><path fill="#FDFDFD" d="M756.17 326.18C756.014 320.353 754.528 309.168 758.498 305.224C761.639 305.284 763.471 304.78 765.821 306.239C766.572 312.11 767.11 354.493 765.713 358.544C764.84 358.594 763.967 358.636 763.094 358.671C752.164 359.117 756.135 343.644 756.122 335.052L730.869 334.961C730.996 340.444 731.865 353.341 729.676 357.853C727.147 359.051 723.361 358.74 721.264 356.88C719.81 344.805 720.728 318.169 720.841 304.993C726.034 305.057 726.466 304.183 729.953 306.691C732.192 311.337 730.998 320.367 730.883 326.284L756.17 326.18Z"/><path fill="#FDFDFD" d="M1079.32 304.987C1080.14 304.955 1080.97 304.931 1081.8 304.914C1086.22 304.832 1086.44 304.679 1089.12 307.249C1090.77 311.365 1089.79 320.793 1089.78 326.183L1114.9 326.179C1114.87 321.347 1114.56 309.841 1115.25 305.631C1117.64 304.645 1122.24 304.831 1124.44 306.168C1126.17 317.524 1124.38 340.918 1124.8 353.3C1124.91 356.511 1124.63 357.171 1122.72 358.865C1121.52 358.825 1117.25 358.693 1116.65 358.102C1113.2 354.721 1114.83 340.581 1114.87 335.023L1089.67 335L1089.79 358.577L1079.35 358.54C1079.57 340.874 1079.33 322.695 1079.32 304.987Z"/><path fill="#FDFDFD" d="M1032.19 304.191C1044.17 303.636 1056.75 306.007 1060.24 319.534C1059.26 322.585 1059.93 321.542 1056.84 323.595C1046.67 324.312 1051.17 316.298 1042.41 313.434C1033.18 310.419 1026.21 315.668 1023.64 324.45C1021.75 330.953 1022.55 337.943 1025.86 343.852C1030.87 352.731 1040.02 351.91 1047.82 347.392C1050.07 342.648 1052.64 337.717 1058.67 340.115C1060.09 342.474 1060.18 347.02 1058.58 349.043C1037.12 376.219 999.828 347.93 1015.34 317.414C1019.37 309.486 1023.92 306.923 1032.19 304.191Z"/><path fill="#FDFDFD" d="M1320.09 304.987C1328.9 304.871 1347.11 304.08 1354.83 305.722C1356.14 308.038 1355.77 307.284 1355.37 310.455C1350.18 315.136 1338.27 313.248 1330.32 313.142L1330.34 326.603C1337.52 326.609 1348.41 324.672 1353.26 329.542C1353.65 332.671 1354.01 332.019 1352.85 334.419C1346.3 336.322 1338.38 334.238 1330.72 335.367L1330.42 335.414L1330.37 350.092C1336.09 349.985 1352.57 348.943 1356.4 351.746C1356.49 355.241 1356.98 355.1 1355.42 357.986C1348.94 359.19 1327.7 358.651 1320.07 358.584C1320.27 340.832 1320.09 322.766 1320.09 304.987Z"/><path fill="#FDFDFD" d="M1374.7 304.991C1382.71 305.125 1402.53 303.725 1409.05 305.87L1409.99 308.223C1408.71 316.148 1391.47 313.288 1384.79 313.143L1384.81 326.711C1391.44 326.56 1403.36 324.571 1407.66 329.484C1407.92 332.757 1408.32 332.032 1406.95 334.449C1403.2 335.449 1389.82 335.094 1384.78 335.233L1384.88 350.035C1390.51 349.956 1406.63 349.147 1410.64 351.424C1410.53 354.846 1411.02 355.308 1409.38 358.02C1404.2 359.304 1381.64 358.523 1374.62 358.462L1374.7 304.991Z"/><path fill="#FDFDFD" d="M898.116 304.959C907.467 304.871 933.99 303.164 940.29 307.259C941.885 310.148 941.693 308.899 940.858 312.316C936.875 313.785 929.289 313.255 924.773 313.189L924.862 345.25L924.878 358.511L914.609 358.473L914.786 313.144C910.098 313.097 903.728 314.503 899.801 312.597C897.442 309.631 898.227 309.617 898.116 304.959Z"/><path fill="#FDFDFD" d="M841.017 304.992C847.056 304.94 880.937 303.956 883.513 306.096C883.792 309.216 884.325 309.761 883.109 312.358C879.333 313.819 872.043 313.231 867.726 313.132L867.762 341.839L867.763 358.54L857.541 358.539L857.547 313.139C852.871 313.073 846.734 314.438 842.765 312.634C840.319 309.632 841.123 309.771 841.017 304.992Z"/><path fill="#FDFDFD" d="M1289.32 304.97C1292.55 304.904 1296.41 304.406 1299.08 305.992C1300.91 314.482 1300.59 335.034 1299.3 343.686C1296.92 359.718 1283.12 363.574 1269.34 355.935C1266.3 352.261 1262.18 347.073 1266.18 343.045C1276.68 341.045 1272.1 346.064 1279.49 350.547C1283.35 351.178 1281.91 351.391 1285.36 349.885C1291.88 342.438 1289.5 316.338 1289.32 304.97Z"/></svg>